<?xml version="1.0" encoding="utf-8"?>
<!-- Generator: Adobe Illustrator 25.0.1, SVG Export Plug-In . SVG Version: 6.00 Build 0)  -->
<svg version="1.1" id="Layer_1" xmlns="http://www.w3.org/2000/svg" xmlns:xlink="http://www.w3.org/1999/xlink" x="0px" y="0px"
	 viewBox="0 0 274.58 262.4" style="enable-background:new 0 0 274.58 262.4;" xml:space="preserve">
<style type="text/css">
	.st0{opacity:0.2;fill:#5C0001;}
	.st1{opacity:0.9;fill:#5C0001;}
	.st2{opacity:0.8;fill:#5C0001;}
	.st3{opacity:0.3;fill:#5C0001;}
	.st4{opacity:0.6;fill:#5C0001;}
	.st5{opacity:0.5;fill:#5C0001;}
	.st6{opacity:0.07;fill:#5C0001;}
	.st7{opacity:0.1;fill:#5C0001;}
	.st8{opacity:0.4;fill:#5C0001;}
	.st9{opacity:0.02;fill:#5C0001;}
	.st10{opacity:0.7;fill:#5C0001;}
	.st11{opacity:0.05;fill:#5C0001;}
	.st12{fill:#5C0001;}
	.st13{fill:#FFF4EB;}
	.st14{fill:#ECE8E7;}
	.st15{fill:#72201E;}
	.st16{fill:#883F3A;}
	.st17{fill:#9E5F57;}
	.st18{fill:#B57E73;}
	.st19{fill:#CB9E90;}
	.st20{fill:#E1BDAC;}
	.st21{fill:#F7DDC9;}
	.st22{fill:none;}
	.st23{opacity:0.86;fill:#FFFFFF;}
	.st24{opacity:0.6;fill:#FFFFFF;}
	.st25{fill:#707070;}
	.st26{fill:#FFFFFF;}
	.st27{fill:#9F9D9D;}
</style>
<g id="Group_63" transform="translate(-120.781 -340)">
	<g id="Group_2_2_" transform="translate(120.781 340)">
		<g id="Group_1_1_">
			<path id="Path_1_1_" class="st12" d="M83,125.19c0,0.48,0.43,1.14,1.28,1.99c0.96,0.96,1.44,1.94,1.43,2.95
				c0,1.65-0.69,3.42-2.07,5.3c-1.85,2.39-3.93,4.59-6.22,6.58c-2.23,1.08-4.59,1.89-7.01,2.39l-0.72-1.2
				c6.22-3.88,9.33-6.51,9.33-7.89c0-0.48-0.43-1.24-1.28-2.27c-0.85-1.04-1.28-1.98-1.28-2.83c0-1.81,1.29-4.29,3.87-7.45
				c2.58-3.16,4.9-5.43,6.97-6.81l0.72,0.72l-1.27,3.99c-1.59,1.11-2.62,1.99-3.07,2.63C83.26,123.83,83.02,124.5,83,125.19z"/>
			<path id="Path_2_1_" class="st12" d="M163.27,66.31l0.8,0.38c-0.32,1.49-1.25,4.18-2.79,8.08c-4.09,4.77-9.99,10.29-17.7,16.55
				c-6.85,5.65-12.86,10.96-18.01,15.93c-2.13,2.05-3.45,3.8-3.99,5.24c-0.21,0.51-0.45,2-0.72,4.46l-1.51,23.17
				c-0.39,6.43-2,12.72-4.74,18.55c-2.79,6.01-6.38,10.52-10.76,13.55c-4.38,3.03-9.9,5.35-16.54,6.97
				c-6.95,1.65-14.06,2.46-21.2,2.42c-6.17,0-10.78-0.51-13.83-1.54c-3.05-1.03-5.41-2.66-7.05-4.89c-1.65-2.23-2.47-5.27-2.47-9.12
				c0-3.44,0.74-7.7,2.23-12.78l2.79,0.38c-0.1,0.95-0.16,1.9-0.16,2.85c0,3.9,1.41,6.62,4.22,8.16c2.82,1.54,8.53,2.31,17.14,2.31
				c17.64,0,30.93-3.16,39.85-9.47c1.81-1.28,2.99-2.48,3.55-3.58c0.56-1.1,0.89-2.68,1-4.73l0.72-22.09
				c0.19-3.11,0.68-6.19,1.47-9.2c0.84-3.07,1.98-6.05,3.43-8.89c1.73-3.32,3.96-6.36,6.62-9.01c2.89-2.98,13.78-12.55,32.64-28.71
				L163.27,66.31z"/>
			<path id="Path_3_1_" class="st12" d="M129.74,114.08l2.01-1.23l2.72-1.56l5.44-2.98l2.07-1.17c0.56-0.32,1.1-0.66,1.62-1.04
				l0.65,0.39c-0.4,1.14-1.01,2.19-1.78,3.11c-0.66,0.73-1.44,1.34-2.3,1.82l-10.24,5.57c-0.86,0.48-1.63,0.93-2.3,1.36
				c-0.58,0.36-1.12,0.8-1.59,1.3l-0.52-0.39c0.23-1.16,0.78-2.24,1.59-3.11C127.92,115.38,128.8,114.69,129.74,114.08z"/>
			<path id="Path_4_1_" class="st12" d="M138.05,144.04c-2.18,9.04-4.65,16.59-7.41,22.68c-2.76,6.08-5.58,10.24-8.45,12.47
				c-3.24,1.7-9.91,3.67-20.01,5.9l-0.4-2.07c2.9-1.65,5.67-3.52,8.29-5.58c3.35-2.55,6.57-5.26,9.68-8.13
				c2.3-2.05,4.48-4.23,6.54-6.54c1.25-1.49,2.66-3.92,4.23-7.29c1.57-3.38,3.18-7.35,4.82-11.92L138.05,144.04z"/>
			<path id="Path_5_1_" class="st12" d="M141.52,164.85c0-9.41,0.33-18.45,1-27.14c0.66-8.69,1.35-14.55,2.07-17.58
				c0.83-3.38,1.94-6.68,3.31-9.88l1.83,0.56c-1.38,8.29-2.07,21.07-2.07,38.34c0,6.01,0.36,10.32,1.08,12.95
				c0.57,2.37,1.77,4.55,3.47,6.3c1.59,1.57,3.82,2.35,6.69,2.35c2.6,0,3.9,1.73,3.9,5.18c0,2.98-0.84,5.25-2.51,6.81
				c-1.57,1.52-3.67,2.37-5.86,2.35c-4.25,0-7.47-1.61-9.65-4.82C142.61,177.06,141.52,171.91,141.52,164.85z"/>
			<path id="Path_6_1_" class="st12" d="M159.4,122.36v-0.8c1.22-1.71,2.55-3.33,3.98-4.86c1.91-2.13,3.22-3.4,3.91-3.83h0.8
				c1.91,1.11,3.69,2.44,5.3,3.95c1.19,1.2,1.79,2.43,1.79,3.71c0,2.13-2.5,5-7.49,8.61h-0.8
				C164.52,126.75,162.02,124.48,159.4,122.36z M159.4,136.59v-0.8c1.22-1.7,2.55-3.33,3.99-4.86c1.91-2.13,3.21-3.4,3.9-3.83h0.8
				c1.89,1.15,3.67,2.49,5.3,3.99c1.2,1.17,1.79,2.39,1.79,3.67c0,2.23-2.42,5.1-7.25,8.61h-0.8
				C164.73,140.91,162.15,138.65,159.4,136.59L159.4,136.59z"/>
			<path id="Path_7_1_" class="st12" d="M177.02,168.59c0.58,0,1.11,0.28,1.44,0.76c0.4,0.6,0.6,1.31,0.56,2.03
				c0.05,2.98-0.85,4.57-2.71,4.78c-0.9,0.11-1.94,0.17-3.11,0.2c-1.17,0.03-2.6,0.01-4.31-0.04c-2.52,2.38-5.27,4.5-8.21,6.34
				c-2.56,1.59-5.51,2.44-8.53,2.43c-2.6-0.05-3.9-1.78-3.91-5.18c0-2.87,0.82-5.11,2.47-6.74c1.55-1.58,3.68-2.46,5.9-2.43h1.03
				c-0.83-1.57-1.24-3.33-1.19-5.1c0.05-3.01,0.72-5.98,1.95-8.73c1.15-2.85,2.94-5.4,5.22-7.45c1.97-1.83,4.56-2.86,7.25-2.87
				c2.53-0.08,4.95,1.02,6.54,2.99c1.65,1.99,2.47,4.5,2.47,7.53c0.03,4.05-1.08,8.02-3.19,11.48L177.02,168.59z M174.79,162.46
				c0-1.64-0.63-3.23-1.75-4.42c-1.15-1.29-2.81-2.01-4.54-1.95c-1.86,0-3.67,0.62-5.14,1.75c-1.57,1.17-2.35,2.6-2.35,4.31
				c-0.05,1.88,0.87,3.65,2.43,4.7c1.62,1.17,3.71,1.75,6.26,1.75C173.08,166.63,174.78,164.58,174.79,162.46L174.79,162.46z"/>
			<path id="Path_8_1_" class="st12" d="M189.44,117.1l2.47-1.51l3.35-1.91l6.7-3.67l2.55-1.43c0.69-0.39,1.35-0.82,1.99-1.28
				l0.8,0.48c-0.49,1.4-1.24,2.69-2.19,3.83c-0.81,0.9-1.77,1.65-2.83,2.23l-12.59,6.85c-1.06,0.58-2.01,1.14-2.83,1.67
				c-0.72,0.44-1.37,0.98-1.95,1.59l-0.64-0.48c0.43-1.7,1.08-2.98,1.95-3.83C187.21,118.71,188.29,117.85,189.44,117.1z"/>
			<path id="Path_9_1_" class="st12" d="M223.89,142.69l1.19,1.04c-0.57,1.56-1.33,3.05-2.27,4.42c-1.14,1.78-2.65,3.28-4.42,4.42
				l-18.01,11.64c-7.97,5.37-13.55,8.73-16.74,10.08c-2.89,1.29-6.01,1.98-9.17,2.03c-0.59,0-1.15-0.28-1.51-0.76
				c-0.45-0.58-0.68-1.3-0.64-2.03c-0.07-1.38,0.49-2.71,1.51-3.63c0.81-0.79,1.89-1.26,3.03-1.31c2.01-0.01,4-0.27,5.94-0.8
				c2-0.53,3.94-1.24,5.82-2.11c1.89-0.88,4.58-2.54,8.09-4.98c-1.49-0.48-3.07-1.55-4.74-3.23c-1.67-1.65-2.57-3.91-2.51-6.26
				c0-4.36,2.52-8.97,7.57-13.83c5.05-4.86,9.49-7.29,13.31-7.29c1.54-0.02,3.05,0.41,4.34,1.23c1.25,0.74,2,2.1,1.95,3.55
				c0.07,1.96-0.98,3.78-2.71,4.7l-0.64-0.08c-0.77-0.78-1.71-1.38-2.75-1.75c-1.04-0.37-2.13-0.56-3.23-0.56
				c-2.2-0.03-4.34,0.67-6.1,1.99c-1.78,1.33-2.67,2.95-2.67,4.86s1,3.52,2.99,4.82c1.99,1.3,4.5,1.95,7.53,1.95
				c1.15-0.01,2.28-0.22,3.35-0.64C216.5,148.12,220.35,145.61,223.89,142.69z"/>
		</g>
	</g>
</g>
</svg>
