<?xml version="1.0" encoding="utf-8"?>
<!-- Generator: Adobe Illustrator 25.0.1, SVG Export Plug-In . SVG Version: 6.00 Build 0)  -->
<svg version="1.1" id="Layer_1" xmlns="http://www.w3.org/2000/svg" xmlns:xlink="http://www.w3.org/1999/xlink" x="0px" y="0px"
	 viewBox="0 0 274.58 262.4" style="enable-background:new 0 0 274.58 262.4;" xml:space="preserve">
<style type="text/css">
	.st0{opacity:0.2;fill:#5C0001;}
	.st1{opacity:0.9;fill:#5C0001;}
	.st2{opacity:0.8;fill:#5C0001;}
	.st3{opacity:0.3;fill:#5C0001;}
	.st4{opacity:0.6;fill:#5C0001;}
	.st5{opacity:0.5;fill:#5C0001;}
	.st6{opacity:0.07;fill:#5C0001;}
	.st7{opacity:0.1;fill:#5C0001;}
	.st8{opacity:0.4;fill:#5C0001;}
	.st9{opacity:0.02;fill:#5C0001;}
	.st10{opacity:0.7;fill:#5C0001;}
	.st11{opacity:0.05;fill:#5C0001;}
	.st12{fill:#5C0001;}
	.st13{fill:#FFF4EB;}
	.st14{fill:#ECE8E7;}
	.st15{fill:#72201E;}
	.st16{fill:#883F3A;}
	.st17{fill:#9E5F57;}
	.st18{fill:#B57E73;}
	.st19{fill:#CB9E90;}
	.st20{fill:#E1BDAC;}
	.st21{fill:#F7DDC9;}
	.st22{fill:none;}
	.st23{opacity:0.86;fill:#FFFFFF;}
	.st24{opacity:0.6;fill:#FFFFFF;}
	.st25{fill:#707070;}
	.st26{fill:#FFFFFF;}
	.st27{fill:#9F9D9D;}
</style>
<g id="Group_58" transform="translate(-120.781 -340)">
	<g id="Group_2_1_" transform="translate(120.781 340)">
		<g id="Group_1">
			<path id="Path_1" class="st12" d="M85.22,108.76c0,0.49,0.43,1.17,1.3,2.04c0.88,0.76,1.41,1.85,1.47,3.02
				c-0.11,1.99-0.85,3.89-2.12,5.42c-1.89,2.44-4.02,4.7-6.36,6.73c-2.28,1.11-4.69,1.93-7.17,2.45l-0.73-1.22
				c6.36-3.97,9.54-6.66,9.54-8.07c-0.2-0.88-0.65-1.69-1.3-2.32c-0.75-0.79-1.21-1.81-1.3-2.9c0-1.85,1.32-4.39,3.95-7.62
				c2.03-2.65,4.43-5,7.13-6.97l0.73,0.73l-1.3,4.08c-1.17,0.74-2.23,1.64-3.14,2.69C85.49,107.36,85.24,108.05,85.22,108.76z"/>
			<path id="Path_2" class="st12" d="M167.31,48.54l0.82,0.39c-0.76,2.82-1.72,5.58-2.85,8.27c-5.53,6.15-11.59,11.82-18.1,16.93
				c-7.01,5.77-13.15,11.21-18.42,16.3c-1.72,1.48-3.11,3.3-4.08,5.36c-0.39,1.49-0.63,3.02-0.73,4.57l-1.55,23.7
				c-0.4,6.57-2.04,13.01-4.85,18.97c-2.85,6.14-6.52,10.76-11.01,13.86c-5.16,3.39-10.89,5.8-16.92,7.12
				c-7.1,1.69-14.38,2.52-21.68,2.48c-6.31,0-11.02-0.53-14.14-1.58c-2.87-0.87-5.39-2.62-7.22-5c-1.69-2.28-2.53-5.39-2.53-9.33
				c0.15-4.44,0.92-8.84,2.28-13.07l2.85,0.39c-0.1,0.97-0.16,1.94-0.16,2.91c0,3.99,1.44,6.77,4.32,8.35
				c2.88,1.58,8.72,2.36,17.53,2.36c18.04,0,31.63-3.23,40.76-9.68c1.48-0.92,2.72-2.18,3.63-3.66c0.66-1.53,1.01-3.17,1.02-4.84
				l0.73-22.6c0.2-3.18,0.7-6.33,1.51-9.41c0.85-3.14,2.03-6.19,3.5-9.09c1.77-3.4,4.05-6.5,6.77-9.21
				c2.96-3.04,14.09-12.83,33.38-29.37L167.31,48.54z"/>
			<path id="Path_3" class="st12" d="M133.02,97.39l2.05-1.26l2.79-1.59l5.57-3.05l2.12-1.19c0.57-0.32,1.12-0.68,1.66-1.06
				l0.66,0.4c-0.41,1.16-1.03,2.24-1.82,3.18c-0.68,0.74-1.47,1.37-2.35,1.86l-10.47,5.7c-0.88,0.49-1.67,0.95-2.36,1.39
				c-0.6,0.37-1.14,0.82-1.62,1.33l-0.53-0.4c0.24-1.19,0.8-2.29,1.62-3.18C131.17,98.72,132.06,98.01,133.02,97.39z"/>
			<path id="Path_4" class="st12" d="M141.52,128.04c-1.8,7.95-4.34,15.71-7.58,23.19c-2.83,6.22-5.71,10.48-8.64,12.76
				c-3.32,1.74-10.14,3.75-20.46,6.03l-0.41-2.12c2.97-1.69,5.8-3.6,8.48-5.71c3.42-2.61,6.72-5.38,9.9-8.32
				c2.35-2.1,4.59-4.33,6.68-6.68c1.74-2.3,3.19-4.81,4.32-7.46c1.6-3.45,3.24-7.51,4.93-12.19L141.52,128.04z"/>
			<path id="Path_5" class="st12" d="M145.07,149.32c0-9.62,0.34-18.87,1.02-27.76c0.68-8.89,1.39-14.88,2.12-17.98
				c0.85-3.46,1.98-6.84,3.38-10.11l1.88,0.57c-1.41,8.48-2.12,21.55-2.12,39.21c0,6.14,0.37,10.56,1.1,13.25
				c0.59,2.42,1.81,4.65,3.55,6.44c1.86,1.69,4.33,2.56,6.85,2.41c2.66,0,3.99,1.77,3.99,5.3c0,3.04-0.86,5.37-2.57,6.97
				c-1.6,1.56-3.76,2.42-5.99,2.4c-4.35,0-7.64-1.64-9.86-4.93C146.18,161.8,145.07,156.54,145.07,149.32z"/>
			<path id="Path_6" class="st12" d="M163.36,105.86v-0.82c1.25-1.74,2.61-3.4,4.08-4.97c1.19-1.44,2.53-2.76,4-3.91h0.82
				c1.95,1.14,3.77,2.49,5.42,4.04c1.1,0.96,1.76,2.33,1.83,3.79c0,2.17-2.55,5.11-7.66,8.8h-0.82
				C168.6,110.34,166.04,108.03,163.36,105.86z M163.36,120.42v-0.82c1.25-1.74,2.61-3.41,4.08-4.97c1.19-1.44,2.53-2.76,3.99-3.91
				h0.82c1.94,1.18,3.75,2.54,5.42,4.08c1.1,0.94,1.77,2.3,1.83,3.75c0,2.28-2.47,5.22-7.42,8.8h-0.82
				C168.81,124.83,166.17,122.52,163.36,120.42L163.36,120.42z"/>
			<path id="Path_7" class="st12" d="M181.37,153.15c0.59,0,1.14,0.29,1.47,0.77c0.41,0.61,0.61,1.34,0.57,2.08
				c0.05,3.04-0.87,4.67-2.77,4.89c-0.92,0.11-1.98,0.18-3.18,0.2c-1.19,0.02-2.66,0.01-4.4-0.04c-2.58,2.43-5.39,4.6-8.4,6.48
				c-2.62,1.63-5.64,2.49-8.72,2.49c-2.66-0.05-4-1.82-4-5.3c-0.15-2.55,0.77-5.04,2.53-6.89c1.59-1.62,3.77-2.52,6.03-2.49h1.06
				c-0.85-1.61-1.27-3.4-1.22-5.22c0.06-3.08,0.74-6.12,2-8.93c1.18-2.91,3.01-5.52,5.34-7.62c2.02-1.87,4.66-2.92,7.42-2.93
				c2.58-0.09,5.06,1.05,6.68,3.06c1.73,2.18,2.63,4.91,2.53,7.7c0.03,4.14-1.1,8.21-3.26,11.74L181.37,153.15z M179.09,146.87
				c0-1.68-0.64-3.3-1.79-4.53c-1.18-1.32-2.88-2.06-4.65-2c-1.9,0-3.75,0.63-5.26,1.79c-1.48,0.98-2.38,2.63-2.4,4.4
				c-0.05,1.92,0.89,3.74,2.49,4.81c1.89,1.26,4.13,1.89,6.4,1.79C177.35,151.14,179.09,149.05,179.09,146.87L179.09,146.87z"/>
			<path id="Path_8" class="st12" d="M194.08,100.48l2.53-1.55l3.42-1.96l6.85-3.75l2.61-1.47c0.7-0.4,1.38-0.83,2.04-1.3l0.82,0.49
				c-0.5,1.43-1.26,2.76-2.24,3.91c-0.83,0.91-1.81,1.68-2.89,2.28l-12.88,7.01c-1.09,0.6-2.05,1.17-2.9,1.71
				c-0.73,0.45-1.41,1-2,1.63l-0.65-0.49c0.29-1.46,0.98-2.82,2-3.91C191.8,102.13,192.91,101.25,194.08,100.48z"/>
			<path id="Path_9" class="st12" d="M229.31,126.65l1.22,1.06c-0.58,1.6-1.36,3.12-2.32,4.53c-1.16,1.82-2.71,3.36-4.52,4.52
				l-18.42,11.9c-8.15,5.49-13.86,8.93-17.12,10.31c-2.95,1.32-6.14,2.03-9.38,2.08c-0.61,0-1.18-0.29-1.55-0.77
				c-0.46-0.59-0.69-1.33-0.65-2.08c-0.07-1.41,0.5-2.77,1.55-3.71c0.83-0.81,1.94-1.29,3.1-1.34c2.05-0.01,4.09-0.28,6.07-0.82
				c2.04-0.54,4.03-1.27,5.95-2.16c2.89-1.48,5.66-3.19,8.27-5.1c-1.85-0.71-3.51-1.84-4.85-3.3c-1.7-1.69-2.63-4-2.57-6.4
				c0-4.46,2.58-9.17,7.75-14.14c5.16-4.97,9.7-7.46,13.61-7.46c1.57-0.02,3.11,0.42,4.44,1.26c1.28,0.75,2.05,2.14,2,3.63
				c0.07,2-1.01,3.86-2.77,4.81l-0.65-0.08c-0.79-0.8-1.75-1.41-2.81-1.79c-1.06-0.38-2.18-0.57-3.3-0.57
				c-2.25-0.03-4.44,0.69-6.23,2.04c-1.68,1.1-2.71,2.96-2.73,4.97c0,1.96,1.02,3.6,3.06,4.93c2.31,1.41,4.99,2.1,7.7,2
				c1.17-0.01,2.33-0.23,3.42-0.65C221.76,132.21,225.69,129.64,229.31,126.65z"/>
		</g>
	</g>
	<path id="Path_87" class="st12" d="M182.56,548.56v-10.3c0-1.28,1.04-2.32,2.32-2.32s2.32,1.04,2.32,2.32v4.62
		c0,0.23,0.1,0.33,0.33,0.33h1.17c0.23,0,0.33-0.1,0.33-0.33v-4.62c-0.02-2.28-1.87-4.13-4.15-4.15c-1.11-0.02-2.18,0.42-2.95,1.22
		c-0.79,0.76-1.23,1.82-1.2,2.92v9.38h-7.83c-0.95,0.02-1.87-0.36-2.52-1.05c-0.68-0.66-1.06-1.57-1.05-2.52
		c0.01-1.4,0.79-2.68,2.03-3.33l0.52-0.25c0.11-0.05,0.18-0.16,0.18-0.28c0-0.06-0.01-0.12-0.03-0.17l-0.55-1.05
		c-0.05-0.11-0.16-0.17-0.28-0.17c-0.06,0-0.12,0.02-0.18,0.05l-0.5,0.25c-1.86,0.95-3.02,2.86-3.02,4.95
		c-0.01,2.97,2.39,5.39,5.36,5.4c0.01,0,0.03,0,0.04,0h8.73C182.14,549.47,182.55,549.07,182.56,548.56z M175.03,551.84h-1.25
		c-0.22,0-0.32,0.12-0.32,0.35v1.35c0,0.22,0.1,0.33,0.32,0.33h1.25c0.23,0,0.33-0.1,0.33-0.33v-1.35
		C175.36,551.96,175.26,551.84,175.03,551.84z M178.36,551.84h-1.23c-0.17-0.02-0.33,0.1-0.35,0.28c0,0.02,0,0.05,0,0.07v1.35
		c0,0.22,0.12,0.33,0.35,0.33h1.23c0.22,0,0.35-0.1,0.35-0.33v-1.35c0.02-0.17-0.1-0.33-0.28-0.35
		C178.41,551.84,178.38,551.84,178.36,551.84z M191.83,549.91h-1.25c-0.22,0-0.32,0.1-0.32,0.33v1.17c0,0.22,0.1,0.33,0.32,0.33
		h1.25c2.14,0.2,4.05-1.37,4.25-3.52c0.02-0.24,0.02-0.49,0-0.73v-12.55c0-0.23-0.1-0.33-0.32-0.33h-1.18
		c-0.16-0.02-0.3,0.09-0.32,0.25c0,0.02,0,0.05,0,0.07v12.55C194.26,549.16,193.51,549.91,191.83,549.91z M201.93,543.36v-14.53
		c0-0.22-0.1-0.35-0.32-0.35h-1.18c-0.23,0-0.32,0.12-0.32,0.35v14.53c-0.13,1.63,1.09,3.05,2.72,3.17c0.15,0.01,0.31,0.01,0.46,0
		h1.18v-1.83h-1.23C202.33,544.71,201.93,544.29,201.93,543.36z M210.88,531.64h1.22c0.23,0,0.35-0.1,0.35-0.32v-1.48
		c0.02-0.17-0.1-0.33-0.28-0.35c-0.02,0-0.05,0-0.07,0h-1.22c-0.23,0-0.32,0.12-0.32,0.35v1.48
		C210.56,531.54,210.66,531.64,210.88,531.64z M214.23,531.64h1.23c0.22,0,0.32-0.1,0.32-0.32v-1.48c0-0.22-0.1-0.35-0.32-0.35
		h-1.23c-0.17-0.02-0.33,0.1-0.35,0.28c0,0.02,0,0.05,0,0.07v1.48C213.88,531.54,214.01,531.64,214.23,531.64z M213.26,535.94
		c1.89,0.02,3.42,1.56,3.43,3.45v5.33h-3.43c-1.9-0.02-3.43-1.55-3.45-3.45v-1.88C209.83,537.49,211.36,535.96,213.26,535.94z
		 M222.31,544.71h-3.78v-5.33c-0.01-2.91-2.37-5.27-5.27-5.27c-1.41-0.02-2.76,0.54-3.75,1.55c-1.01,0.98-1.57,2.32-1.55,3.72v1.88
		c-0.01,1.27,0.45,2.5,1.3,3.45h-5.43v1.83h18.48V544.71z M230.33,535.94c0.9,0,1.77,0.32,2.45,0.9c0.7,0.5,1.17,1.25,1.3,2.1
		l-2.68,5.77h-2.12l-2.68-5.75c0.2-0.81,0.66-1.54,1.3-2.08C228.58,536.29,229.44,535.95,230.33,535.94z M238.58,544.71h-5.18
		l2.45-5.22c0.05-0.12,0.07-0.25,0.07-0.38v-0.1c-0.13-1.35-0.79-2.58-1.82-3.45c-1.03-0.95-2.38-1.47-3.77-1.48
		c-1.42,0.01-2.77,0.57-3.78,1.58c-0.99,0.84-1.64,2.02-1.82,3.3v0.12c0,0.14,0.03,0.27,0.07,0.4l2.45,5.22h-5.8v1.83h17.13V544.71z
		 M240.76,544.71h-2.93v1.83h2.9c1.63,0.12,3.06-1.11,3.18-2.74c0.01-0.14,0.01-0.29,0-0.43v-14.53c0-0.22-0.1-0.35-0.32-0.35h-1.18
		c-0.23,0-0.32,0.12-0.32,0.35v14.53C242.08,544.26,241.68,544.69,240.76,544.71z M249.76,546.21v-17.4c0-0.23-0.1-0.33-0.3-0.33
		h-1.2c-0.22,0-0.32,0.1-0.32,0.33v17.4c0,0.23,0.1,0.33,0.32,0.33h1.2C249.66,546.54,249.76,546.44,249.76,546.21z M266.13,541.26
		v-1.9c0-1.91,1.55-3.45,3.46-3.44c1.91,0,3.45,1.55,3.44,3.46c0,0.04,0,0.07,0,0.11v5.22h-3.45
		C267.69,544.69,266.16,543.16,266.13,541.26z M269.93,549.76h-5.15c-1.97-0.01-3.57-1.6-3.57-3.57v-3.9
		c0.02-0.17-0.1-0.33-0.28-0.35c-0.02,0-0.05,0-0.07,0h-1.15c-0.23,0-0.33,0.12-0.33,0.35v3.9c0,2.99,2.41,5.41,5.4,5.42h5.15
		c1.31,0.01,2.57-0.53,3.48-1.48c0.94-0.91,1.47-2.17,1.45-3.47v-0.12h4.12v-1.83h-4.12v-5.22c0.04-1.43-0.51-2.82-1.52-3.83
		c-0.97-1.03-2.33-1.6-3.75-1.58c-2.91,0.01-5.27,2.37-5.27,5.28v1.9c0.01,2.91,2.37,5.27,5.27,5.28h3.45v0.12
		C273.01,548.36,271.63,549.74,269.93,549.76L269.93,549.76z M267.23,531.64h1.2c0.23,0,0.35-0.1,0.35-0.32v-1.48
		c0.02-0.17-0.1-0.33-0.28-0.35c-0.02,0-0.05,0-0.07,0h-1.2c-0.17-0.02-0.33,0.1-0.35,0.28c0,0.02,0,0.05,0,0.07v1.48
		C266.88,531.54,267.01,531.64,267.23,531.64L267.23,531.64z M270.56,531.64h1.23c0.23,0,0.32-0.1,0.32-0.32v-1.48
		c0-0.22-0.1-0.35-0.32-0.35h-1.23c-0.17-0.02-0.33,0.1-0.35,0.28c0,0.02,0,0.05,0,0.07v1.48
		C270.21,531.54,270.33,531.64,270.56,531.64L270.56,531.64z M280.88,548.91h-1.23c-0.23,0-0.32,0.12-0.32,0.35v1.45
		c0,0.23,0.1,0.35,0.32,0.35h1.23c0.17,0.02,0.33-0.1,0.35-0.28c0-0.02,0-0.05,0-0.07v-1.45c0.02-0.17-0.1-0.33-0.28-0.35
		C280.93,548.91,280.91,548.91,280.88,548.91z M284.23,548.91h-1.25c-0.23,0-0.32,0.12-0.32,0.35v1.45c0,0.23,0.1,0.35,0.32,0.35
		h1.25c0.23,0,0.33-0.12,0.33-0.35v-1.45C284.56,549.04,284.46,548.91,284.23,548.91L284.23,548.91z M285.03,543.36v-8.42
		c0-0.23-0.1-0.35-0.33-0.35h-1.17c-0.23,0-0.33,0.12-0.33,0.35v8.42c0,0.92-0.4,1.33-1.32,1.35h-3.9v1.83h3.88
		c1.64,0.11,3.06-1.13,3.17-2.77C285.04,543.63,285.04,543.5,285.03,543.36L285.03,543.36z M290.53,541.26v-1.88
		c-0.03-1.9,1.48-3.46,3.38-3.5c1.9-0.03,3.46,1.48,3.5,3.38c0,0.04,0,0.08,0,0.12v5.33h-3.43
		C292.09,544.69,290.56,543.16,290.53,541.26L290.53,541.26z M294.33,549.91h-2.6c-0.16-0.02-0.3,0.09-0.32,0.25
		c0,0.02,0,0.05,0,0.07v1.17c-0.02,0.16,0.09,0.3,0.25,0.33c0.02,0,0.05,0,0.07,0h2.6c2.69-0.04,4.87-2.21,4.93-4.9v-0.3h3.77v-1.83
		h-3.77v-5.33c-0.01-2.91-2.37-5.27-5.27-5.27c-1.41-0.02-2.76,0.54-3.75,1.55c-1.01,0.98-1.57,2.32-1.55,3.72v1.88
		c-0.02,1.4,0.54,2.75,1.55,3.73c0.99,1.01,2.34,1.57,3.75,1.55h3.42v0.3C297.37,548.52,296.02,549.88,294.33,549.91L294.33,549.91z
		 M321.41,543.34v-8.4c0-0.23-0.1-0.35-0.32-0.35h-1.18c-0.23,0-0.32,0.12-0.32,0.35v8.4c0,0.92-0.43,1.38-1.35,1.38h-1.58
		c-0.53,0.05-1.07-0.09-1.5-0.4c-0.15-0.17-0.22-0.4-0.2-0.62v-8.1c0-0.22-0.1-0.33-0.33-0.33h-1.17c-0.23,0-0.33,0.1-0.33,0.33
		v7.75c0,0.92-0.42,1.38-1.32,1.38h-1.6c-0.53,0.05-1.06-0.09-1.5-0.4c-0.15-0.17-0.22-0.4-0.2-0.62v-8.75
		c0-0.23-0.1-0.35-0.32-0.35h-1.18c-0.23,0-0.32,0.12-0.32,0.35v8.4c0,0.92-0.4,1.38-1.3,1.38h-3.23v1.83h3.18
		c0.85,0.05,1.68-0.26,2.3-0.85c0.04-0.04,0.07-0.08,0.1-0.12v0.02c0.76,0.68,1.76,1.03,2.77,0.95h1.25
		c0.86,0.05,1.7-0.26,2.33-0.85c0.03-0.05,0.06-0.09,0.1-0.12l0.02,0.02v0.03c0.76,0.66,1.75,0.99,2.75,0.92h1.27
		c0.85,0.05,1.68-0.26,2.3-0.85c0.07-0.07,0.13-0.14,0.18-0.23c0,0.03,0.05,0.05,0.07,0.08c0.7,0.68,1.65,1.04,2.62,1h0.85v-1.83
		h-1.17C322.16,544.71,321.41,544.26,321.41,543.34z M327.98,544.71h-4.35v1.83h4.3c0.85,0.05,1.68-0.26,2.3-0.85l0.1-0.12
		c0,0.02,0.02,0.02,0.02,0.05c0.77,0.66,1.76,1,2.77,0.92h0.85v-1.83h-1.18c-0.52,0.05-1.05-0.09-1.48-0.4
		c-0.16-0.17-0.24-0.39-0.23-0.62v-8.75c0-0.23-0.1-0.35-0.32-0.35h-1.18c-0.17-0.01-0.32,0.12-0.33,0.29c0,0.02,0,0.04,0,0.06v8.4
		C329.28,544.24,328.88,544.71,327.98,544.71L327.98,544.71z M327.91,531.64h1.25c0.23,0,0.33-0.1,0.33-0.32v-1.48
		c0-0.22-0.1-0.35-0.33-0.35h-1.25c-0.17-0.02-0.33,0.1-0.35,0.28c0,0.02,0,0.05,0,0.07v1.48
		C327.56,531.54,327.68,531.64,327.91,531.64z M331.23,531.64h1.23c0.23,0,0.35-0.1,0.35-0.32v-1.48c0.02-0.17-0.1-0.33-0.28-0.35
		c-0.02,0-0.05,0-0.07,0h-1.23c-0.23,0-0.33,0.12-0.33,0.35v1.48C330.91,531.54,331.01,531.64,331.23,531.64L331.23,531.64z
		 M336.41,544.71h-3.05v1.83h3.02c0.85,0.05,1.69-0.26,2.3-0.85c0.04-0.04,0.07-0.08,0.1-0.12c0.75,0.69,1.76,1.05,2.77,0.97h0.98
		v-1.83h-1.27c-0.52,0.05-1.05-0.09-1.48-0.4c-0.17-0.16-0.25-0.39-0.23-0.62v-14.85c0-0.22-0.1-0.35-0.32-0.35h-1.18
		c-0.23,0-0.32,0.12-0.32,0.35v14.5C337.73,544.26,337.31,544.71,336.41,544.71L336.41,544.71z M344.71,544.71h-2.93v1.83h2.9
		c1.63,0.12,3.06-1.11,3.18-2.74c0.01-0.14,0.01-0.29,0-0.43v-14.53c0-0.22-0.1-0.35-0.33-0.35h-1.17c-0.23,0-0.33,0.12-0.33,0.35
		v14.53C346.03,544.26,345.63,544.69,344.71,544.71L344.71,544.71z"/>
</g>
</svg>
